<svg width="127" height="100" viewBox="0 0 127 100" fill="none" xmlns="http://www.w3.org/2000/svg">
<path id="Vector" d="M109.075 57.4228C104.644 57.4491 100.808 58.5694 97.5908 60.2374C96.4029 57.7618 95.2149 55.5987 95.0171 53.9833C94.7944 52.1071 94.5222 50.9602 94.7944 48.7195C95.0664 46.4782 96.3039 43.299 96.3039 43.0384C96.2789 42.8039 96.0314 41.6573 93.4824 41.6312C90.9335 41.6052 88.7305 42.1524 88.4831 42.856C88.2356 43.5596 87.7406 45.1752 87.4188 46.843C86.9733 49.2925 82.3204 57.97 79.6723 62.5303C78.806 60.7583 78.0636 59.1948 77.9148 57.9437C77.6923 56.0678 77.4198 54.9209 77.6923 52.6801C77.9645 50.4388 79.202 47.2599 79.202 46.9993C79.1773 46.7648 78.9298 45.6182 76.3808 45.5922C73.8314 45.5661 71.6289 46.1133 71.3815 46.8169C71.134 47.5205 70.8617 49.1883 70.3172 50.8039C69.7972 52.4195 63.6099 66.9082 62.0012 70.6867C61.1844 72.615 60.467 74.1525 59.947 75.1948C59.4272 76.2372 59.9222 75.273 59.8727 75.3773C59.4272 76.2633 59.1797 76.7584 59.1797 76.7584V76.7847C58.8332 77.4362 58.462 78.0613 58.2885 78.0613C58.1648 78.0613 57.9173 76.3154 58.338 73.9182C59.2537 68.8886 61.4812 61.0452 61.4567 60.7586C61.4567 60.6283 61.8772 59.2469 60.021 58.5436C58.2143 57.84 57.571 59.0127 57.4223 59.0127C57.2738 59.0127 57.15 59.4296 57.15 59.4296C57.15 59.4296 59.1547 50.5959 53.3139 50.5959C49.651 50.5959 44.6021 54.7914 42.1024 58.622C40.5184 59.5341 37.1525 61.4622 33.5886 63.5211C32.2274 64.3028 30.8167 65.1367 29.4802 65.8924L29.2082 65.5792C22.1299 57.6313 9.03742 52.0026 9.5819 41.3185C9.7799 37.4358 11.0669 27.1947 34.7276 14.7908C54.1064 4.62787 69.6242 7.41615 72.3217 13.6181C76.1578 22.4781 64.0306 38.9472 43.8848 41.3185C36.2125 42.2306 32.1781 39.1035 31.1636 37.9309C30.0994 36.7061 29.9509 36.654 29.5549 36.8885C28.9114 37.2534 29.3074 38.3478 29.5549 38.9993C30.1489 40.641 32.6239 43.5596 36.8313 45.0189C40.5187 46.2957 49.5277 46.9993 60.4175 42.5693C72.6189 37.5921 82.1475 23.781 79.3508 12.237C76.5046 0.484534 57.992 -3.37216 40.4942 3.16858C30.0744 7.07739 18.7887 13.1751 10.6709 21.1751C1.0186 30.6605 -0.515861 38.9472 0.127624 42.3869C2.38007 54.6606 18.4422 62.6606 24.877 68.5759C24.5553 68.7581 24.2583 68.9405 23.9861 69.0971C20.7686 70.7646 8.51768 77.5141 5.44875 84.6539C1.98383 92.7321 5.99324 98.5435 8.66617 99.3252C16.9325 101.749 25.3968 97.3969 29.9754 90.2307C34.5291 83.0646 33.9848 73.7616 31.8811 69.5141L31.8066 69.3577L34.3311 67.7942C35.9648 66.7779 37.5735 65.8398 38.984 65.0317C38.1922 67.2988 37.6227 69.9828 37.326 73.8917C36.9795 78.4783 38.7615 84.4194 41.1127 86.7647C42.1521 87.7807 43.3896 87.807 44.1568 87.807C46.8793 87.807 48.1167 85.4354 49.478 82.5953C51.1609 79.1295 52.6459 75.1164 52.6459 75.1164C52.6459 75.1164 50.7897 85.9829 55.8633 85.9829C57.7195 85.9829 59.5757 83.4552 60.4172 82.1523V82.1783C60.4172 82.1783 60.4667 82.1001 60.5657 81.9177C60.6696 81.7561 60.7686 81.591 60.8627 81.4229V81.3708C61.6052 80.0157 63.2634 76.9147 65.7383 71.7812C68.9308 65.1623 71.9999 56.8756 71.9999 56.8756C71.9999 56.8756 72.2969 58.9082 73.2127 62.2437C73.7569 64.2244 74.9449 66.387 75.8606 68.4978C75.1181 69.5922 74.6726 70.2179 74.6726 70.2179L74.6974 70.244C74.1036 71.0778 73.4352 71.9641 72.7424 72.8498C70.218 76.029 67.1985 79.6514 66.8026 80.6938C66.3323 81.9183 66.4313 82.8303 67.347 83.5602C68.0153 84.0814 69.2033 84.1854 70.4655 84.0814C72.7424 83.9248 74.3264 83.3257 75.1184 82.9606C76.3558 82.4916 77.7666 81.788 79.1278 80.7456C81.6027 78.8175 83.1124 76.0814 82.9639 72.4331C82.8897 70.4266 82.271 68.4462 81.5037 66.5699C81.7265 66.2312 81.9495 65.8921 82.172 65.5276C86.0824 59.5078 89.1018 52.8891 89.1018 52.8891C89.1018 52.8891 89.3988 54.9217 90.3145 58.2572C90.7845 59.951 91.7252 61.8015 92.5667 63.6256C88.9038 66.7787 86.6021 70.4269 85.8101 72.8243C84.3499 77.2543 85.4884 79.2608 87.6416 79.7298C88.6066 79.9383 89.9928 79.4693 91.032 79.0002C92.319 78.5572 93.8782 77.8012 95.3139 76.681C97.7888 74.7526 100.165 72.0686 100.041 68.4464C99.9668 66.7787 99.546 65.137 98.9768 63.5734C102.095 62.2184 106.129 61.4366 111.253 62.0881C122.266 63.4432 124.444 70.6875 124.023 73.7103C123.603 76.7334 121.301 78.4009 120.534 78.922C119.766 79.4171 119.519 79.5998 119.593 79.9644C119.692 80.5119 120.039 80.4856 120.707 80.3816C121.623 80.225 126.498 77.906 126.696 72.3297C126.993 65.1625 120.534 57.3449 109.075 57.4228ZM24.1346 87.5727C20.4964 91.7682 15.3733 93.3578 13.1953 92.0027C10.8441 90.5695 11.7596 84.3936 16.2395 79.9375C18.9619 77.2274 22.5011 74.7258 24.8275 73.1883C25.3473 72.8496 26.1393 72.3547 27.0797 71.7551C27.2282 71.6511 27.3272 71.5988 27.3272 71.5988C27.5005 71.4945 27.6985 71.3642 27.8965 71.2339C29.5547 77.5923 27.9707 83.1688 24.1346 87.5727ZM50.7402 68.5238C49.478 71.7812 46.805 80.146 45.1963 79.677C43.8101 79.2861 42.9689 72.9538 44.9238 66.6997C45.9138 63.5463 48.0175 59.7942 49.255 58.3346C51.2599 55.9893 53.4376 55.2076 53.9824 56.1717C54.6258 57.4228 51.5322 66.4912 50.7402 68.5238ZM72.6929 79.5727C72.1484 79.8596 71.6535 80.0678 71.4307 79.9117C71.2575 79.8075 71.6532 79.4166 71.6532 79.4166C71.6532 79.4166 74.4004 76.3156 75.4894 74.8824C76.1081 74.0488 76.8506 73.0846 77.6426 71.9899V72.3026C77.6428 76.0548 74.2274 78.5564 72.6929 79.5727ZM89.6213 75.5076C89.2253 75.1949 89.275 74.2307 90.6113 71.2079C91.1312 70.0092 92.319 68.0026 94.3732 66.1004C94.6207 66.8821 94.7694 67.6376 94.7444 68.3414C94.7199 73.032 91.552 74.7779 89.6213 75.5076Z" fill="#CF649A"/>
</svg>
