<svg width="47" height="59" viewBox="0 0 47 59" fill="none" xmlns="http://www.w3.org/2000/svg">
<g id="B">
<path id="Vector" d="M0 0H27.5956C32.6853 0 36.7729 1.20642 39.8426 3.63579C42.9123 6.06515 44.4552 9.71747 44.4552 14.6258C44.4552 17.6005 43.7553 20.1456 42.3557 22.2609C40.956 24.3763 38.9519 26.0289 36.3435 27.1858V27.351C39.8426 28.1278 42.4988 29.8465 44.2961 32.5072C46.0934 35.1845 47 38.5228 47 42.5552C47 44.8689 46.6024 47.0339 45.8071 49.0335C45.0118 51.0498 43.7712 52.785 42.0694 54.2393C40.3675 55.6936 38.2044 56.8505 35.5482 57.7099C32.892 58.5692 29.7428 58.9989 26.0846 58.9989H0V0ZM9.94078 24.7068H26.1641C28.5499 24.7068 30.5381 24.0127 32.1286 22.5915C33.7191 21.1702 34.5144 19.154 34.5144 16.5098C34.5144 13.535 33.7986 11.4362 32.3672 10.2298C30.9357 9.02336 28.868 8.41189 26.1641 8.41189H9.94078V24.7068ZM9.94078 50.5705H27.5161C30.5381 50.5705 32.892 49.7607 34.5462 48.1246C36.2162 46.505 37.0592 44.1913 37.0592 41.2166C37.0592 38.2914 36.2321 36.0604 34.5462 34.4739C32.8602 32.8873 30.5381 32.1271 27.5161 32.1271H9.94078V50.5705Z" fill="white"/>
</g>
</svg>
