<svg width="106" height="100" viewBox="0 0 106 100" fill="none" xmlns="http://www.w3.org/2000/svg">
<g id="Group 14">
<path id="Vector" d="M0 49.6457C0 58.0158 7.81678 65.8296 20.1406 70.234C17.6796 83.1883 19.6995 93.6293 26.4462 97.6978C33.3811 101.879 43.7125 98.9848 53.5183 90.0225C63.0767 98.623 72.7371 102.008 79.4776 97.9278C86.4057 93.7341 88.5131 82.5848 85.9841 69.2262C98.82 64.7888 106 58.126 106 49.6457C106 41.4696 98.1687 34.3962 86.0111 30.02C88.7337 16.1093 86.4268 5.92155 79.4008 1.68508C72.627 -2.39914 62.8544 1.16068 53.1554 9.98645C43.0653 0.618589 33.3891 -2.24154 26.3699 2.00728C19.6028 6.10312 17.6717 16.7339 20.1406 29.9281C8.23291 34.2691 0 41.5023 0 49.6457Z" fill="white"/>
<path id="Vector_2" d="M83.4349 34.3656C82.4584 34.0141 81.4465 33.6816 80.4045 33.3671C80.5758 32.6363 80.733 31.915 80.8727 31.2059C83.1667 19.563 81.6668 10.1833 76.5452 7.09517C71.6343 4.13402 63.6028 7.2215 55.4914 14.6026C54.7114 15.3123 53.9292 16.0638 53.1473 16.8513C52.6264 16.3303 52.1063 15.8267 51.5875 15.3451C43.0865 7.45277 34.5656 4.12684 29.449 7.22395C24.5427 10.1937 23.0898 19.0114 25.1547 30.0455C25.3541 31.1113 25.5872 32.1997 25.8507 33.3063C24.6448 33.6642 23.4806 34.0458 22.3666 34.4518C12.4001 38.085 6.03502 43.7792 6.03502 49.6856C6.03502 55.7857 12.8679 61.9042 23.2488 65.6142C24.068 65.907 24.9181 66.1838 25.7941 66.4466C25.5098 67.6434 25.2624 68.8163 25.0548 69.9602C23.0859 80.8028 24.6235 89.4122 29.5167 92.3632C34.5709 95.4107 43.0533 92.2782 51.313 84.729C51.9658 84.1322 52.621 83.4994 53.2774 82.836C54.1281 83.6926 54.9775 84.5033 55.8223 85.2637C63.8228 92.4624 71.7246 95.3692 76.6133 92.41C81.6624 89.3537 83.3034 80.1051 81.173 68.8527C81.0103 67.9933 80.8209 67.1154 80.6083 66.2218C81.204 66.0377 81.7888 65.8476 82.359 65.6499C93.1509 61.9112 100.173 55.8672 100.173 49.6856C100.173 43.7578 93.6022 38.0253 83.4349 34.3656Z" fill="#53C1DE"/>
<path id="Vector_3" d="M81.0943 61.6588C80.5795 61.837 80.0514 62.0092 79.5132 62.1762C78.3218 58.2325 76.7138 54.0389 74.7461 49.7063C76.6239 45.4768 78.1696 41.3369 79.3277 37.4188C80.2906 37.7101 81.2253 38.0174 82.126 38.3417C90.8373 41.4774 96.151 46.1135 96.151 49.6858C96.151 53.4909 90.4123 58.4305 81.0943 61.6588ZM77.2279 69.6696C78.17 74.6452 78.3045 79.1438 77.6805 82.6605C77.1198 85.8205 75.9923 87.9274 74.5982 88.7712C71.6315 90.5667 65.2872 88.2328 58.4451 82.0764C57.6607 81.3707 56.8706 80.6171 56.0781 79.8196C58.7306 76.7862 61.3816 73.2599 63.969 69.3435C68.5198 68.9213 72.8193 68.2309 76.7184 67.2885C76.9104 68.0985 77.081 68.8929 77.2279 69.6696ZM38.1287 88.4609C35.2301 89.5312 32.9216 89.5619 31.5262 88.7205C28.5568 86.9298 27.3223 80.0172 29.0062 70.7446C29.199 69.6827 29.4286 68.5919 29.6932 67.4769C33.5495 68.3685 37.8175 69.0101 42.3792 69.3968C44.984 73.229 47.7116 76.7515 50.4603 79.8359C49.8598 80.4421 49.2616 81.0192 48.6667 81.563C45.0143 84.9012 41.3543 87.2697 38.1287 88.4609ZM24.5495 61.6355C19.9592 59.9951 16.1685 57.863 13.57 55.5364C11.2352 53.4457 10.0564 51.37 10.0564 49.6858C10.0564 46.1016 15.1669 41.53 23.6904 38.4227C24.7246 38.0456 25.8072 37.6903 26.9307 37.3566C28.1087 41.3632 29.654 45.5522 31.5188 49.7881C29.6298 54.087 28.0626 58.3427 26.8731 62.3963C26.0721 62.1555 25.2961 61.9022 24.5495 61.6355ZM29.1013 29.2382C27.3322 19.7845 28.5072 12.6529 31.4638 10.8634C34.6132 8.95696 41.5773 11.6751 48.9172 18.4897C49.3864 18.9253 49.8574 19.3812 50.3298 19.8528C47.5947 22.9237 44.892 26.4197 42.3104 30.2294C37.883 30.6585 33.645 31.3477 29.7485 32.2707C29.5035 31.2403 29.2865 30.228 29.1013 29.2382ZM69.708 39.7224C68.7765 38.04 67.8202 36.3975 66.8454 34.7998C69.8489 35.1968 72.7267 35.7238 75.4291 36.3688C74.6178 39.0876 73.6065 41.9303 72.4162 44.8445C71.5623 43.1494 70.6591 41.4403 69.708 39.7224ZM53.1487 22.858C55.0036 24.9592 56.8612 27.3052 58.6884 29.8506C56.8472 29.7597 54.9832 29.7123 53.1038 29.7123C51.2422 29.7123 49.3919 29.7586 47.5621 29.848C49.3911 27.3262 51.2648 24.9834 53.1487 22.858ZM36.4833 39.7515C35.5529 41.4385 34.6665 43.1384 33.826 44.8414C32.6549 41.9373 31.653 39.0816 30.8346 36.3243C33.5205 35.6958 36.3847 35.1819 39.3691 34.7924C38.3805 36.4048 37.4163 38.0595 36.4833 39.7511V39.7515ZM39.4551 64.8791C36.3716 64.5194 33.4644 64.032 30.7792 63.4209C31.6106 60.6142 32.6346 57.6976 33.8305 54.731C34.6732 56.4328 35.5631 58.1333 36.4993 59.8241H36.4994C37.453 61.5465 38.441 63.2337 39.4551 64.8791ZM53.26 76.8101C51.3539 74.6598 49.4528 72.2812 47.596 69.7227C49.3985 69.7966 51.2361 69.8344 53.1038 69.8344C55.0226 69.8344 56.9194 69.7892 58.7864 69.7023C56.9532 72.3069 55.1023 74.6892 53.26 76.8101ZM72.4545 54.5798C73.7128 57.5785 74.7734 60.4799 75.6156 63.2386C72.8862 63.8897 69.9392 64.4141 66.8343 64.8038C67.8115 63.1845 68.7762 61.5137 69.7241 59.7952C70.6831 58.0564 71.5936 56.315 72.4545 54.5798ZM66.2406 57.6944C64.7691 60.3623 63.2583 62.9091 61.7246 65.3131C58.9312 65.5219 56.0452 65.6295 53.1038 65.6295C50.1743 65.6295 47.3247 65.5344 44.5807 65.3481C42.9851 62.9126 41.4416 60.3583 39.9794 57.7174H39.9797C38.5214 55.0837 37.1792 52.4278 35.9631 49.7867C37.1789 47.1395 38.5176 44.4806 39.9675 41.8516L39.9672 41.8522C41.4209 39.2162 42.951 36.6743 44.5318 34.254C47.3314 34.0327 50.2023 33.9173 53.1036 33.9173H53.1038C56.0182 33.9173 58.8928 34.0336 61.6916 34.2568C63.2483 36.6594 64.7679 39.1931 66.2274 41.8294C67.7034 44.4953 69.0594 47.1365 70.2856 49.727C69.0631 52.3619 67.7101 55.0297 66.2406 57.6944ZM74.5365 10.7383C77.6889 12.6391 78.9148 20.305 76.9342 30.3575C76.8078 30.9989 76.6656 31.6522 76.5111 32.3143C72.6055 31.3721 68.3645 30.6709 63.9242 30.2353C61.3375 26.3838 58.657 22.8823 55.9665 19.8509C56.6898 19.1233 57.4122 18.4295 58.1315 17.7747C65.0814 11.4507 71.577 8.95381 74.5365 10.7383Z" fill="white"/>
<path id="Vector_4" d="M53.1052 40.8964C57.7477 40.8964 61.5114 44.8315 61.5114 49.6859C61.5114 54.5402 57.7477 58.4754 53.1052 58.4754C48.4627 58.4754 44.6991 54.5402 44.6991 49.6859C44.6991 44.8315 48.4627 40.8964 53.1052 40.8964Z" fill="#53C1DE"/>
</g>
</svg>
