<svg width="86" height="100" viewBox="0 0 86 100" fill="none" xmlns="http://www.w3.org/2000/svg">
<g id="Group">
<path id="Vector" d="M42.8181 100C41.4883 100 40.2472 99.6325 39.0948 98.9894L27.3043 91.7317C25.5313 90.7212 26.4178 90.3537 26.9497 90.17C29.3432 89.3431 29.7865 89.1594 32.2687 87.6895C32.5346 87.5057 32.8892 87.5976 33.1552 87.7813L42.1975 93.3854C42.5521 93.5691 42.9954 93.5691 43.2613 93.3854L78.6328 72.1635C78.9874 71.9798 79.1647 71.6123 79.1647 71.153V28.8011C79.1647 28.3418 78.9874 27.9743 78.6328 27.7905L43.2613 6.66054C42.9067 6.4768 42.4635 6.4768 42.1975 6.66054L6.82607 27.7905C6.47147 27.9743 6.29417 28.4336 6.29417 28.8011V71.153C6.29417 71.5204 6.47147 71.9798 6.82607 72.1635L16.4889 77.9513C21.7193 80.7074 24.9994 77.492 24.9994 74.2765V32.4759C24.9994 31.9247 25.4426 31.3734 26.0632 31.3734H30.5843C31.1162 31.3734 31.6481 31.8328 31.6481 32.4759V74.2765C31.6481 81.5342 27.8362 85.7602 21.1874 85.7602C19.1485 85.7602 17.5527 85.7602 13.0316 83.4635L3.72331 77.9513C1.4184 76.5733 0 74.0009 0 71.2448V28.893C0 26.1369 1.4184 23.5645 3.72331 22.1865L39.0948 0.96463C41.311 -0.321543 44.3251 -0.321543 46.5414 0.96463L81.9128 22.1865C84.2177 23.5645 85.6361 26.1369 85.6361 28.893V71.2448C85.6361 74.0009 84.2177 76.5733 81.9128 77.9513L46.5414 99.1732C45.3889 99.7244 44.0592 100 42.8181 100ZM53.722 70.8773C38.2083 70.8773 35.0168 63.5278 35.0168 57.2807C35.0168 56.7294 35.4601 56.1782 36.0806 56.1782H40.6905C41.2224 56.1782 41.6656 56.5457 41.6656 57.0969C42.3748 61.966 44.4138 64.3546 53.8107 64.3546C61.2573 64.3546 64.4487 62.6091 64.4487 58.475C64.4487 56.0864 63.5622 54.3408 51.949 53.1465C42.2862 52.136 36.2579 49.9311 36.2579 41.9384C36.2579 34.497 42.2862 30.0873 52.3923 30.0873C63.7395 30.0873 69.3245 34.1295 70.0337 42.949C70.0337 43.2246 69.945 43.5002 69.7677 43.7758C69.5904 43.9596 69.3245 44.1433 69.0585 44.1433H64.4487C64.0055 44.1433 63.5622 43.7758 63.4736 43.3165C62.4098 38.2637 59.6616 36.61 52.3923 36.61C44.2365 36.61 43.2613 39.5498 43.2613 41.7547C43.2613 44.4189 44.4138 45.2457 55.4064 46.7157C66.3104 48.1856 71.4521 50.2986 71.4521 58.1994C71.3634 66.2839 64.9806 70.8773 53.722 70.8773Z" fill="#539E43"/>
</g>
</svg>
